<svg id="visual" viewBox="0 0 900 600" width="900" height="600" xmlns="http://www.w3.org/2000/svg" xmlns:xlink="http://www.w3.org/1999/xlink" version="1.1"><g transform="translate(-27.41804343051885 479.7390057964945)"><path d="M251.1 -269.4C336 -228.1 422.6 -158.9 452.6 -68.1C482.6 22.8 456.1 135.4 404.7 242.3C353.3 349.2 277 450.4 167 514.8C56.9 579.2 -87 606.7 -171.8 544.5C-256.7 482.2 -282.5 330.1 -321.5 210.7C-360.5 91.3 -412.7 4.7 -410.3 -83.4C-408 -171.6 -351.2 -261.2 -273.7 -303.8C-196.3 -346.4 -98.1 -342 -7.5 -333C83.1 -324.1 166.3 -310.7 251.1 -269.4" fill="#f1eafd"></path></g></svg> 